<svg xmlns="http://www.w3.org/2000/svg" viewBox="0 0 960 560" font-family="Georgia, 'Times New Roman', serif">
  <defs>
    <marker id="arrow" viewBox="0 0 10 10" refX="9" refY="5" markerWidth="6" markerHeight="6" orient="auto">
      <path d="M0,0 L10,5 L0,10 z" fill="#1a1a1a"/>
    </marker>
    <style>
      .panel { fill: #faf6ef; stroke: #1a1a1a; stroke-width: 1.5; }
      .cmp   { fill: #fff1d6; stroke: #b8770a; stroke-width: 1.5; }
      .slc   { fill: #e6f4ea; stroke: #2e7d32; stroke-width: 1.5; }
      .win   { fill: #e8edfb; stroke: #2d4a8a; stroke-width: 1.5; }
      .gate  { fill: #f4e6f4; stroke: #6a2c70; stroke-width: 1.5; }
      .tok   { fill: #ffffff; stroke: #888; stroke-width: 0.8; }
      .toklive { fill: #1a1a1a; stroke: #1a1a1a; }
      .title { font-size: 17px; font-weight: 700; fill: #1a1a1a; }
      .head  { font-size: 13px; font-weight: 700; fill: #1a1a1a; }
      .label { font-size: 12px; fill: #1a1a1a; }
      .mono  { font-size: 11px; font-family: 'Menlo', monospace; fill: #222; }
      .small { font-size: 10px; font-family: 'Menlo', monospace; fill: #555; }
      .caption { font-size: 11px; fill: #555; font-style: italic; }
    </style>
  </defs>

  <text x="480" y="28" text-anchor="middle" class="title">native sparse attention — three branches, one query</text>
  <text x="480" y="48" text-anchor="middle" class="caption">DeepSeek NSA, ACL 2025. One query position t reads ~8% of the KV cache at 64k context.</text>

  <!-- KV cache strip (top) -->
  <text x="30" y="82" class="head">KV cache</text>
  <g transform="translate(140, 68)">
    <!-- 32 token squares -->
    <g id="toks">
      <rect x="0"   y="0" width="22" height="22" class="tok"/>
      <rect x="24"  y="0" width="22" height="22" class="tok"/>
      <rect x="48"  y="0" width="22" height="22" class="tok"/>
      <rect x="72"  y="0" width="22" height="22" class="tok"/>
      <rect x="96"  y="0" width="22" height="22" class="tok"/>
      <rect x="120" y="0" width="22" height="22" class="tok"/>
      <rect x="144" y="0" width="22" height="22" class="tok"/>
      <rect x="168" y="0" width="22" height="22" class="tok"/>
      <rect x="192" y="0" width="22" height="22" class="tok"/>
      <rect x="216" y="0" width="22" height="22" class="tok"/>
      <rect x="240" y="0" width="22" height="22" class="tok"/>
      <rect x="264" y="0" width="22" height="22" class="tok"/>
      <rect x="288" y="0" width="22" height="22" class="tok"/>
      <rect x="312" y="0" width="22" height="22" class="tok"/>
      <rect x="336" y="0" width="22" height="22" class="tok"/>
      <rect x="360" y="0" width="22" height="22" class="tok"/>
      <rect x="384" y="0" width="22" height="22" class="tok"/>
      <rect x="408" y="0" width="22" height="22" class="tok"/>
      <rect x="432" y="0" width="22" height="22" class="tok"/>
      <rect x="456" y="0" width="22" height="22" class="tok"/>
      <rect x="480" y="0" width="22" height="22" class="tok"/>
      <rect x="504" y="0" width="22" height="22" class="tok"/>
      <rect x="528" y="0" width="22" height="22" class="tok"/>
      <rect x="552" y="0" width="22" height="22" class="tok"/>
      <rect x="576" y="0" width="22" height="22" class="tok"/>
      <rect x="600" y="0" width="22" height="22" class="tok"/>
      <rect x="624" y="0" width="22" height="22" class="tok"/>
      <rect x="648" y="0" width="22" height="22" class="tok"/>
      <rect x="672" y="0" width="22" height="22" class="tok"/>
      <rect x="696" y="0" width="22" height="22" class="tok"/>
      <rect x="720" y="0" width="22" height="22" class="tok"/>
      <rect x="744" y="0" width="22" height="22" class="tok"/>
    </g>
    <text x="0" y="36" class="small">k_0</text>
    <text x="744" y="36" class="small">k_{t-1}</text>
  </g>

  <!-- query circle -->
  <circle cx="900" cy="79" r="14" fill="#1a1a1a"/>
  <text x="900" y="84" text-anchor="middle" fill="white" class="mono">q_t</text>

  <!-- branch 1: compression -->
  <rect x="30" y="140" width="280" height="130" class="cmp"/>
  <text x="170" y="162" text-anchor="middle" class="head">1 / compression</text>
  <text x="170" y="180" text-anchor="middle" class="caption">global reach, cheap</text>
  <!-- block summaries -->
  <rect x="55"  y="195" width="40" height="20" class="tok" fill="#b8770a" fill-opacity="0.35"/>
  <rect x="100" y="195" width="40" height="20" class="tok" fill="#b8770a" fill-opacity="0.35"/>
  <rect x="145" y="195" width="40" height="20" class="tok" fill="#b8770a" fill-opacity="0.35"/>
  <rect x="190" y="195" width="40" height="20" class="tok" fill="#b8770a" fill-opacity="0.35"/>
  <rect x="235" y="195" width="40" height="20" class="tok" fill="#b8770a" fill-opacity="0.35"/>
  <text x="75"  y="210" text-anchor="middle" class="small">K̃_0</text>
  <text x="120" y="210" text-anchor="middle" class="small">K̃_1</text>
  <text x="165" y="210" text-anchor="middle" class="small">K̃_2</text>
  <text x="210" y="210" text-anchor="middle" class="small">K̃_3</text>
  <text x="255" y="210" text-anchor="middle" class="small">K̃_4</text>
  <text x="170" y="240" text-anchor="middle" class="mono">K̃ = MLP(pool(K[id:id+l]))</text>
  <text x="170" y="256" text-anchor="middle" class="mono">block l=32, stride d=16</text>

  <!-- branch 2: selection -->
  <rect x="340" y="140" width="280" height="130" class="slc"/>
  <text x="480" y="162" text-anchor="middle" class="head">2 / selection</text>
  <text x="480" y="180" text-anchor="middle" class="caption">top-n blocks at full resolution</text>
  <!-- selected blocks (darker fills = picked) -->
  <rect x="365" y="195" width="28" height="20" class="tok" fill="#2e7d32" fill-opacity="0.7"/>
  <rect x="395" y="195" width="28" height="20" class="tok" fill="#2e7d32" fill-opacity="0.12"/>
  <rect x="425" y="195" width="28" height="20" class="tok" fill="#2e7d32" fill-opacity="0.12"/>
  <rect x="455" y="195" width="28" height="20" class="tok" fill="#2e7d32" fill-opacity="0.7"/>
  <rect x="485" y="195" width="28" height="20" class="tok" fill="#2e7d32" fill-opacity="0.12"/>
  <rect x="515" y="195" width="28" height="20" class="tok" fill="#2e7d32" fill-opacity="0.7"/>
  <rect x="545" y="195" width="28" height="20" class="tok" fill="#2e7d32" fill-opacity="0.12"/>
  <rect x="575" y="195" width="28" height="20" class="tok" fill="#2e7d32" fill-opacity="0.7"/>
  <text x="480" y="240" text-anchor="middle" class="mono">p_slc = aggregate(p_cmp) → top-n</text>
  <text x="480" y="256" text-anchor="middle" class="mono">l'=64, n=16 (incl 1 init, 2 local)</text>

  <!-- branch 3: sliding window -->
  <rect x="650" y="140" width="280" height="130" class="win"/>
  <text x="790" y="162" text-anchor="middle" class="head">3 / sliding window</text>
  <text x="790" y="180" text-anchor="middle" class="caption">local fluency, last w tokens</text>
  <rect x="675" y="195" width="240" height="20" class="tok" fill="#2d4a8a" fill-opacity="0.25"/>
  <text x="790" y="210" text-anchor="middle" class="small">last w = 512 tokens</text>
  <text x="790" y="240" text-anchor="middle" class="mono">K̃_win = K[t-w : t]</text>
  <text x="790" y="256" text-anchor="middle" class="mono">pure slice, no projection</text>

  <!-- arrows from KV cache down to branches -->
  <line x1="180" y1="104" x2="170" y2="138" stroke="#b8770a" stroke-width="1.5" marker-end="url(#arrow)"/>
  <line x1="460" y1="104" x2="480" y2="138" stroke="#2e7d32" stroke-width="1.5" marker-end="url(#arrow)"/>
  <line x1="820" y1="104" x2="790" y2="138" stroke="#2d4a8a" stroke-width="1.5" marker-end="url(#arrow)"/>

  <!-- q fan-in to each branch -->
  <path d="M900,96 C 600,120 300,120 170,138" fill="none" stroke="#888" stroke-width="0.8" stroke-dasharray="3 3"/>
  <path d="M900,96 C 700,120 520,120 480,138" fill="none" stroke="#888" stroke-width="0.8" stroke-dasharray="3 3"/>
  <path d="M900,96 C 850,115 800,125 790,138" fill="none" stroke="#888" stroke-width="0.8" stroke-dasharray="3 3"/>

  <!-- branch outputs -->
  <rect x="100" y="305" width="140" height="34" class="panel"/>
  <text x="170" y="327" text-anchor="middle" class="mono">cmp_out</text>
  <rect x="410" y="305" width="140" height="34" class="panel"/>
  <text x="480" y="327" text-anchor="middle" class="mono">slc_out</text>
  <rect x="720" y="305" width="140" height="34" class="panel"/>
  <text x="790" y="327" text-anchor="middle" class="mono">win_out</text>

  <line x1="170" y1="270" x2="170" y2="303" stroke="#1a1a1a" stroke-width="1.5" marker-end="url(#arrow)"/>
  <line x1="480" y1="270" x2="480" y2="303" stroke="#1a1a1a" stroke-width="1.5" marker-end="url(#arrow)"/>
  <line x1="790" y1="270" x2="790" y2="303" stroke="#1a1a1a" stroke-width="1.5" marker-end="url(#arrow)"/>

  <!-- gate -->
  <rect x="380" y="370" width="200" height="50" class="gate"/>
  <text x="480" y="392" text-anchor="middle" class="head">gate (3 sigmoids)</text>
  <text x="480" y="410" text-anchor="middle" class="mono">g = σ(W_gate · q_t)</text>

  <line x1="170" y1="339" x2="400" y2="370" stroke="#b8770a" stroke-width="1.3" marker-end="url(#arrow)"/>
  <line x1="480" y1="339" x2="480" y2="370" stroke="#2e7d32" stroke-width="1.3" marker-end="url(#arrow)"/>
  <line x1="790" y1="339" x2="560" y2="370" stroke="#2d4a8a" stroke-width="1.3" marker-end="url(#arrow)"/>

  <!-- fused output -->
  <rect x="410" y="445" width="140" height="34" class="panel" stroke-width="2"/>
  <text x="480" y="467" text-anchor="middle" class="mono">o_t = Σ g · branch</text>
  <line x1="480" y1="420" x2="480" y2="443" stroke="#1a1a1a" stroke-width="1.5" marker-end="url(#arrow)"/>

  <!-- numbers strip -->
  <rect x="30" y="500" width="900" height="46" class="panel"/>
  <text x="50" y="520" class="head">reads at 64k context, DeepSeek defaults:</text>
  <text x="50" y="538" class="mono">cmp ≈ 4096 summaries  +  slc = 16 × 64 = 1024  +  win = 512  →  5632 keys  (8.6% of 65536)</text>
</svg>
