<svg xmlns="http://www.w3.org/2000/svg" viewBox="0 0 880 540" font-family="Georgia, 'Times New Roman', serif">
  <defs>
    <marker id="arrow" viewBox="0 0 10 10" refX="9" refY="5" markerWidth="6" markerHeight="6" orient="auto">
      <path d="M0,0 L10,5 L0,10 z" fill="#1a1a1a"/>
    </marker>
    <marker id="red-arrow" viewBox="0 0 10 10" refX="9" refY="5" markerWidth="6" markerHeight="6" orient="auto">
      <path d="M0,0 L10,5 L0,10 z" fill="#c0392b"/>
    </marker>
    <style>
      .box { fill: #faf6ef; stroke: #1a1a1a; stroke-width: 1.5; }
      .hot { fill: #fff1d6; stroke: #c0392b; stroke-width: 1.8; }
      .cool { fill: #e6f4ea; stroke: #2e7d32; stroke-width: 1.5; }
      .cell { fill: #f3ece0; stroke: #1a1a1a; stroke-width: 1.2; }
      .reject { fill: #fbe3e0; stroke: #c0392b; stroke-width: 1.5; }
      .label { font-size: 13px; font-weight: 600; fill: #1a1a1a; }
      .content { font-size: 12px; font-family: 'Menlo', monospace; fill: #222; }
      .caption { font-size: 11px; fill: #555; font-style: italic; }
      .title { font-size: 16px; font-weight: 700; fill: #1a1a1a; }
      .small { font-size: 11px; font-family: 'Menlo', monospace; fill: #555; }
    </style>
  </defs>

  <text x="440" y="28" text-anchor="middle" class="title">speculative decoding: one target forward, up to K+1 tokens</text>

  <rect class="box" x="30" y="50" width="820" height="90" rx="4"/>
  <text class="label" x="45" y="72">1 / draft proposes K = 4 tokens autoregressively (cheap)</text>
  <rect class="cell" x="50"  y="88" width="90" height="36" rx="3"/><text class="content" x="95"  y="111" text-anchor="middle">prefix...</text>
  <rect class="cell" x="160" y="88" width="90" height="36" rx="3"/><text class="content" x="205" y="111" text-anchor="middle">x1 ~ q</text>
  <rect class="cell" x="270" y="88" width="90" height="36" rx="3"/><text class="content" x="315" y="111" text-anchor="middle">x2 ~ q</text>
  <rect class="cell" x="380" y="88" width="90" height="36" rx="3"/><text class="content" x="425" y="111" text-anchor="middle">x3 ~ q</text>
  <rect class="cell" x="490" y="88" width="90" height="36" rx="3"/><text class="content" x="535" y="111" text-anchor="middle">x4 ~ q</text>
  <text class="small" x="610" y="111">  cost ≈ K · cost(draft)</text>

  <rect class="hot" x="30" y="165" width="820" height="90" rx="4"/>
  <text class="label" x="45" y="187">2 / target runs ONE forward pass over all K+1 positions</text>
  <text class="content" x="50" y="215">p_k = p( · | prefix + x1..xk)   for k = 0, 1, 2, 3, 4</text>
  <text class="caption" x="50" y="240">memory-bound decode amortized across K+1 positions — this is where the speedup comes from</text>

  <rect class="box" x="30" y="280" width="820" height="190" rx="4"/>
  <text class="label" x="45" y="302">3 / accept-or-reject left to right, preserve target distribution p</text>

  <rect class="cool" x="50"  y="316" width="120" height="46" rx="3"/>
  <text class="content" x="110" y="338" text-anchor="middle">x1 accept</text>
  <text class="small"   x="110" y="354" text-anchor="middle">r &lt; p(x1)/q(x1)</text>

  <rect class="cool" x="190" y="316" width="120" height="46" rx="3"/>
  <text class="content" x="250" y="338" text-anchor="middle">x2 accept</text>
  <text class="small"   x="250" y="354" text-anchor="middle">r &lt; p(x2)/q(x2)</text>

  <rect class="reject" x="330" y="316" width="140" height="46" rx="3"/>
  <text class="content" x="400" y="338" text-anchor="middle">x3 REJECT</text>
  <text class="small"   x="400" y="354" text-anchor="middle">r ≥ p(x3)/q(x3)</text>

  <rect class="cell" x="490" y="316" width="140" height="46" rx="3"/>
  <text class="content" x="560" y="338" text-anchor="middle">sample ~ residual</text>
  <text class="small"   x="560" y="354" text-anchor="middle">(p - q)+ / ||·||₁</text>

  <rect class="cell" x="650" y="316" width="180" height="46" rx="3"/>
  <text class="content" x="740" y="338" text-anchor="middle">stop — emit x1, x2, y</text>
  <text class="small"   x="740" y="354" text-anchor="middle">distribution still = p</text>

  <path d="M 170 339 L 190 339" stroke="#1a1a1a" stroke-width="1.5" fill="none" marker-end="url(#arrow)"/>
  <path d="M 310 339 L 330 339" stroke="#1a1a1a" stroke-width="1.5" fill="none" marker-end="url(#arrow)"/>
  <path d="M 470 339 L 490 339" stroke="#c0392b" stroke-width="1.5" fill="none" marker-end="url(#red-arrow)"/>
  <path d="M 630 339 L 650 339" stroke="#1a1a1a" stroke-width="1.5" fill="none" marker-end="url(#arrow)"/>

  <rect class="cool" x="50"  y="390" width="260" height="60" rx="3"/>
  <text class="label" x="180" y="414" text-anchor="middle">alternate path: all K accepted</text>
  <text class="content" x="180" y="434" text-anchor="middle">+ bonus token ~ p(· | x1..xK)</text>
  <text class="small"   x="180" y="450" text-anchor="middle">K + 1 tokens produced</text>

  <rect class="box" x="340" y="390" width="490" height="60" rx="3"/>
  <text class="label" x="585" y="412" text-anchor="middle">expected tokens per target forward</text>
  <text class="content" x="585" y="432" text-anchor="middle">E[tokens] = (1 − α^(K+1)) / (1 − α)</text>
  <text class="small"   x="585" y="448" text-anchor="middle">α = 0.8, K = 4 → 3.36 tokens per verify</text>

  <rect class="box" x="30" y="485" width="820" height="40" rx="4"/>
  <text class="caption" x="440" y="510" text-anchor="middle">EAGLE-3 pushes this to ~4.65 tokens / verify by feeding multi-layer target features into a tree drafter</text>
</svg>
